P3  # Plain portable pixmap
60 5 255  # Width, Height, Max color component value

017 022 051  025 028 049  028 032 047  031 037 047
038 042 043  046 047 041  051 050 038  056 053 037
070 053 021  077 055 014  083 057 007  086 055 007
088 052 006  087 051 002  086 051 000  077 060 000
071 063 000  065 067 000  057 068 001  051 069 001
040 073 000  031 077 000  022 065 001  013 055 003
007 046 005  001 038 007  005 029 014  007 019 022
007 009 027  006 000 033  005 000 035  006 000 035
006 000 036  006 000 030  006 002 024  003 001 019
000 000 014  003 001 019  009 004 023  011 005 031
014 007 039  025 005 055  036 004 070  048 001 085
061 000 101  048 000 100  041 000 097  033 000 095
027 000 093  021 000 091  017 000 089  013 000 087
016 001 083  019 002 079  025 002 075  031 003 069
026 009 063  021 015 057  019 019 053  017 022 051

018 023 050  025 028 048  028 033 047  032 038 046
039 043 042  047 047 040  052 050 037  058 053 033
071 053 019  078 055 012  083 056 007  086 054 006
087 051 005  086 051 001  084 052 000  075 060 000
069 063 000  063 067 000  055 068 001  048 069 000
038 073 000  029 074 000  020 062 001  011 053 003
005 044 005  001 036 008  005 027 015  007 017 022
006 007 028  005 000 033  005 000 035  006 000 035
006 000 034  006 000 028  005 001 023  002 000 018
000 000 015  004 001 019  009 004 024  011 005 032
016 006 042  027 004 058  038 003 073  050 000 088
058 000 100  046 000 099  039 000 096  031 000 094
025 000 092  020 000 090  016 000 088  013 000 086
016 001 082  020 002 078  026 002 073  030 004 067
025 010 061  020 015 056  018 019 052  017 022 051

020 024 050  026 029 048  029 034 047  033 039 045
041 044 042  048 048 039  052 051 037  061 053 030
072 053 018  079 055 011  084 056 007  086 053 006
087 051 004  086 051 001  082 054 000  074 061 000
068 064 000  061 067 000  054 068 001  046 070 000
036 074 000  027 072 000  018 060 001  010 051 003
004 042 005  002 034 009  005 025 017  007 015 024
006 005 029  005 000 033  005 000 035  006 000 035
006 000 033  006 000 027  004 001 022  001 000 017
001 000 016  005 002 020  009 004 026  012 005 034
018 006 045  029 004 061  040 002 076  053 000 091
055 000 100  045 000 098  037 000 096  030 000 094
024 000 092  019 000 090  015 000 088  014 000 085
017 001 081  021 002 077  027 002 072  029 005 066
024 011 060  020 016 055  018 020 052  017 022 051

021 025 049  026 030 047  029 035 047  035 040 044
042 045 041  048 048 039  054 051 037  064 053 027
074 054 016  080 056 009  084 055 007  087 053 006
087 051 003  086 051 000  080 056 000  073 061 000
067 065 000  060 067 000  053 068 001  044 071 000
034 075 000  025 069 000  016 059 002  009 049 004
003 041 006  003 032 011  006 023 018  007 013 024
006 003 030  005 000 034  005 000 035  006 000 035
006 000 032  006 001 026  004 001 021  001 000 016
001 000 017  006 002 021  010 004 027  012 006 035
020 005 048  031 004 064  043 002 079  055 000 094
053 000 100  043 000 098  036 000 095  029 000 093
023 000 091  018 000 089  014 000 087  014 000 084
017 001 080  022 002 076  028 002 071  028 006 065
023 012 059  019 017 054  017 020 051  017 022 051

023 026 049  027 031 047  030 036 047  036 041 043
044 046 041  050 049 038  055 052 037  067 053 024
075 054 015  081 056 008  085 055 007  087 052 006
087 051 002  086 051 000  078 058 000  072 062 000
066 066 000  058 067 000  052 068 001  042 072 000
032 076 000  023 067 000  014 057 002  008 047 004
002 039 006  004 030 012  006 021 020  007 011 026
006 001 031  005 000 034  005 000 035  006 000 035
006 000 031  006 001 025  003 001 020  000 000 015
002 000 018  007 003 022  010 004 029  013 006 037
022 005 051  033 004 067  045 001 081  058 000 097
050 000 100  042 000 097  034 000 095  028 000 093
022 000 091  017 000 089  013 000 087  015 000 083
018 001 079  023 002 075  029 002 070  027 007 064
022 013 058  019 018 053  017 021 051  017 022 051

