P3  # Plain portable pixmap
60 6 255  # Width, Height, Max color component value

042 008 068  055 005 073  066 000 072  076 000 071
076 000 050  076 000 032  072 001 016  068 000 000
058 000 023  048 000 037  042 000 052  024 000 054
011 000 059  005 000 051  000 000 044  001 000 055
006 000 065  014 000 074  015 000 074  018 000 076
008 000 076  000 000 076  008 010 063  019 023 054
025 025 051  034 026 050  022 030 048  013 034 044
006 028 043  000 020 042  031 019 056  042 020 060
056 024 066  058 030 066  062 037 065  066 054 070
072 071 076  057 047 074  045 025 075  026 013 076
009 000 076  018 000 070  027 000 067  032 000 057
042 000 046  030 009 039  025 015 041  020 023 043
008 017 044  000 011 047  000 006 042  000 000 041
006 013 038  013 030 034  017 035 022  021 042 013
030 030 023  041 022 032  042 014 050  042 008 068

044 007 068  056 004 072  067 000 071  076 000 067
076 000 047  075 000 029  071 000 013  066 000 003
056 000 025  047 000 039  039 000 052  021 000 054
010 000 057  004 000 049  000 000 045  001 000 056
007 000 066  014 000 074  015 000 074  016 000 076
006 000 076  001 001 073  009 012 061  020 023 053
026 025 050  032 026 049  020 030 047  011 033 043
005 026 042  005 019 044  032 019 056  044 020 061
056 025 066  058 031 065  062 039 065  067 056 071
069 067 075  055 043 074  041 023 075  023 010 076
010 000 075  019 000 069  027 000 065  033 000 055
040 001 044  029 010 039  024 016 041  018 022 043
006 016 044  000 010 046  000 005 041  000 002 040
007 015 037  013 030 032  017 036 020  022 040 014
031 028 024  041 020 035  042 013 053  042 008 068

046 007 069  058 003 072  069 000 071  076 000 064
076 000 044  074 000 026  070 000 010  064 000 007
054 000 027  046 000 042  036 000 052  019 000 055
009 000 056  003 000 048  000 000 047  002 000 058
008 000 068  014 000 074  016 000 074  014 000 076
005 000 076  002 003 071  011 014 060  021 023 053
028 025 050  030 027 049  019 031 046  010 032 043
004 025 042  010 019 046  034 019 057  046 021 062
056 026 066  059 032 065  063 042 066  068 059 072
067 063 075  053 039 074  038 021 075  020 008 076
012 000 074  021 000 069  028 000 063  035 000 053
038 002 043  028 011 039  023 017 041  016 021 043
005 015 045  000 009 045  000 004 041  001 004 040
008 018 036  014 031 030  018 037 019  024 038 016
033 027 026  041 019 038  042 012 056  042 008 068

048 006 070  060 002 072  071 000 071  076 000 060
076 000 041  074 000 024  070 000 008  063 000 011
053 000 030  045 000 044  033 000 053  017 000 056
008 000 055  002 000 047  000 000 049  003 000 060
010 000 069  014 000 074  016 000 075  013 000 076
004 000 076  004 005 069  013 016 058  022 024 052
029 025 050  028 028 049  017 032 046  009 031 043
003 024 042  015 019 049  036 019 058  049 022 063
057 027 066  060 033 065  064 045 067  069 062 073
064 059 075  051 036 074  035 019 075  017 006 076
013 000 073  022 000 068  029 000 062  037 000 051
036 004 042  027 012 040  022 019 042  014 020 043
004 014 045  000 008 044  000 003 041  003 006 039
009 021 036  015 032 028  019 038 017  025 036 018
035 026 027  041 018 041  042 011 059  042 008 068

050 006 071  062 001 072  072 000 071  076 000 057
076 000 038  073 000 021  069 000 005  061 000 015
051 000 032  044 000 047  030 000 053  015 000 057
007 000 053  001 000 046  000 000 051  004 000 061
011 000 071  014 000 074  017 000 075  011 000 076
002 000 076  005 006 067  015 018 057  023 024 052
031 025 050  026 028 048  016 032 045  008 030 043
002 022 042  020 019 051  038 019 058  051 022 064
057 028 066  060 034 065  064 048 068  070 065 074
062 055 074  049 032 074  032 017 075  014 004 076
015 000 072  024 000 068  030 000 060  038 000 049
034 006 041  026 013 040  021 020 042  012 019 043
002 013 046  000 007 043  000 002 041  004 008 039
010 024 035  015 033 026  019 039 016  027 034 019
037 024 029  041 016 044  042 010 062  042 008 068

052 005 072  064 000 072  074 000 071  076 000 053
076 000 035  072 000 018  068 000 002  059 000 019
049 000 034  043 000 049  027 000 053  013 000 058
006 000 052  000 000 045  000 000 053  005 000 063
012 000 072  014 000 074  017 000 075  009 000 076
001 000 076  006 008 065  017 020 055  024 024 051
032 025 050  024 029 048  014 033 044  007 029 043
000 021 042  025 019 053  040 019 059  053 023 065
057 029 066  061 035 065  065 051 069  071 068 075
059 051 074  047 028 074  029 015 075  011 002 076
016 000 071  025 000 067  031 000 058  040 000 047
032 007 040  025 014 040  020 021 042  010 018 043
001 012 046  000 006 042  000 000 041  005 010 038
011 027 034  016 034 024  020 040 014  028 032 021
039 023 030  041 015 047  042 009 065  042 008 068

